<?xml version="1.0" encoding="utf-8"?>
<!-- Generator: Adobe Illustrator 19.1.0, SVG Export Plug-In . SVG Version: 6.00 Build 0)  -->
<svg version="1.1" id="Layer_1" xmlns="http://www.w3.org/2000/svg" xmlns:xlink="http://www.w3.org/1999/xlink" x="0px" y="0px"
	 viewBox="0 0 267.2 207.6" style="enable-background:new 0 0 267.2 207.6;" xml:space="preserve">
<g>
	<path d="M63.6,203.3c-4.9-3.6-8.2-9.2-13-12.9c-9.3-7.3-22.2-5.9-32.7-11c-14.2-6.9-21.7-26.5-16-42c2.5-6.8,7.1-12.8,7.5-20.1
		c0.4-6.5-2.6-12.6-4.6-18.8c-5.4-17.1-2.5-36.8,7.1-51.5c9.6-14.8,25.4-24.5,42-26.7c15.1-2,31.1,1.7,45.4-3.9
		c8.6-3.4,15.8-9.9,24.2-13.7C132-1.2,143-1.5,149,6c5.5,6.8,4.7,17.7,10.4,24.4c4.1,4.8,10.8,6.2,16.8,5.2c6-0.9,11.5-3.8,17-6.4
		c14.5-6.8,30.5-12.1,46-8.5c15.5,3.6,29.6,18.8,28,35.7c-1,10.6-7.7,19.5-12.9,28.6c-5.2,9.1-9.1,20.8-4.4,30.3
		c6.8,13.8,0.7,31.9-10.8,41.2c-11.5,9.4-26.9,11.5-41.3,10.2c-12.8-1.2-25.7-4.7-38.4-2.6c-23.9,4-40.8,26.8-62.4,38.3
		C86.4,207.8,73.2,210.4,63.6,203.3 M67.1,200.1c6.9,4.8,16,3.4,23.6,0.2c22.2-9.4,38.1-32.6,61.2-39c12.2-3.4,25-1.6,37.5-0.2
		c12.5,1.4,25.5,2.4,37.3-2.3c11.8-4.7,21.9-16.6,21.2-30.1c-0.5-7.9-4.5-15.2-4.9-23.1c-1.1-21.2,23.3-37.8,19-58.5
		c-2.3-11.1-12.5-18.5-22.7-21.4c-10-2.8-20.7-2.5-30.5,0.9c-9.6,3.4-18.2,9.6-27.9,12.4c-9.7,2.8-21.9,0.9-27.1-8.4
		c-3.7-6.6-3.1-15.7-8-21.4c-5.2-6.1-14.4-5.7-21.4-2.3c-7,3.4-12.8,9.1-19.8,12.6c-18.1,9.2-39.8,2.2-59.2,7.4
		c-15.3,4-28.6,16-34.9,31.5c-6.4,15.5-5.7,34.1,1.8,49.1c2.7,5.5,1.6,12.3-0.6,18c-2.2,5.7-5.5,11-6.9,17
		C1.9,154.3,7.3,168,17.3,174c11.6,7,27.3,4.1,37.6,13.2C59.4,191.1,62.3,196.8,67.1,200.1z"/>
</g>
</svg>
