<?xml version="1.0" encoding="utf-8"?>
<!-- Generator: Adobe Illustrator 19.1.0, SVG Export Plug-In . SVG Version: 6.00 Build 0)  -->
<svg version="1.1" id="Layer_1" xmlns="http://www.w3.org/2000/svg" xmlns:xlink="http://www.w3.org/1999/xlink" x="0px" y="0px"
	 viewBox="0 0 125.4 81.3" style="enable-background:new 0 0 125.4 81.3;" xml:space="preserve">
<g>
	<path d="M64.4,66.7c-2.2-3.3-7.2-0.5-10.3,1.9c-11.4,8.6-28.5,8.2-39.9-0.3C2.8,59.7-2.4,43.9,1,30.1c3.4-13.8,15-25.2,28.7-29
		c9-2.5,20.3-1.1,25.1,6.9c1.3,2.1,2,4.6,3.5,6.6c1.5,2,4.1,3.5,6.4,2.6c19.1-7.7,44.4-4.6,55.6,12.7c9.5,14.7,4.9,36.7-9.7,46.3
		C96.1,85.8,74.1,81.3,64.4,66.7 M74,47.3c5.3,0.1,9.6,5.7,8.8,11c-0.7,5.3-5.6,9.4-10.9,10c9.6,10.1,27,11.5,38.1,3.1
		c11.1-8.4,14.5-25.5,7.5-37.5c-7.1-12-23.6-17.4-36.4-11.8c-1.6,0.7-4,1.3-4.6-0.4c-0.8-2.2-3.8-3-5.9-2.2c-2.2,0.8-3.8,2.7-5,4.7
		c-3.5,5.6-5.2,12.2-4.9,18.8c0.1,1.1,0.2,2.3,0.8,3.3c1.2,1.9,3.8,2.4,6,2.1S71.8,47.2,74,47.3 M52,64.6c2.8-2.4,5.3-5.5,5.9-9.1
		c1.2-6.3-3.1-13.5,0.3-19C53,37.7,47.1,38.5,42.4,36C37,33.1,34.6,25.8,37,20.3c2.5-5.5,9.5-8.5,15.2-6.5c2.1-2.2-1-5.5-3.8-6.6
		c-13.8-5.3-31,0.5-38.6,13.2c-3.9,6.4-5.3,14-5,21.5c0.2,3.7,0.8,7.4,2.1,10.9c3.2,8.5,10.7,15.3,19.5,17.6
		C35.2,72.6,45,70.4,52,64.6 M74.5,54.6c-1.1,0.7-1.8,2.1-1.5,3.5c1.2,0.5,2.3,1,3.5,1.5c1.2-0.6,1.8-2.1,1.3-3.4
		C77.3,54.9,75.7,54.2,74.5,54.6 M50.7,33.9c1.1-0.9,0.3-2.9-1-3.5c-1.3-0.6-2.8-0.2-4.2,0.2c-1,0.8-0.3,2.6,0.9,3
		c1.2,0.4,2.6-0.1,3.8-0.6L50.7,33.9z"/>
</g>
</svg>
